# Blender 3.3.1
# www.blender.org
mtllib BatTest.mtl
o Body_bat
v -0.380493 0.445876 0.482350
v 0.380493 0.445876 0.482350
v 0.380493 -0.315110 0.482350
v -0.380493 -0.315110 0.482350
v -0.380471 0.065384 -1.800462
v -0.380471 0.065384 -1.039516
v 0.380471 0.065384 -1.800462
v 0.380471 0.065384 -1.039516
v 0.126817 -0.124848 1.116436
v 0.126817 -0.124848 1.623734
v 0.126817 -0.251672 1.116436
v 0.126817 -0.251672 1.623734
v 0.507290 -0.251672 1.116436
v 0.507290 -0.251672 1.623734
v 0.507290 -0.124848 1.116436
v 0.507290 -0.124848 1.623734
v 0.126817 -0.124848 1.116436
v 0.126817 -0.251672 1.116436
v 0.507290 -0.124848 1.116436
v 0.507290 -0.251672 1.116436
v 0.126817 -0.124848 1.623734
v 0.126817 -0.124848 1.116436
v 0.507290 -0.124848 1.623734
v 0.507290 -0.124848 1.116436
v 0.126817 -0.251672 1.623734
v 0.126817 -0.124848 1.623734
v 0.507290 -0.251672 1.623734
v 0.507290 -0.124848 1.623734
v 0.126817 -0.251672 1.116436
v 0.126817 -0.251672 1.623734
v 0.507290 -0.251672 1.116436
v 0.507290 -0.251672 1.623734
v -0.507290 -0.124848 1.116436
v -0.507290 -0.124848 1.623734
v -0.507290 -0.251672 1.116436
v -0.507290 -0.251672 1.623734
v -0.126817 -0.251672 1.116436
v -0.126817 -0.251672 1.623734
v -0.126817 -0.124848 1.116436
v -0.126817 -0.124848 1.623734
v -0.507290 -0.124848 1.116436
v -0.507290 -0.251672 1.116436
v -0.126817 -0.124848 1.116436
v -0.126817 -0.251672 1.116436
v -0.507290 -0.124848 1.623734
v -0.507290 -0.124848 1.116436
v -0.126817 -0.124848 1.623734
v -0.126817 -0.124848 1.116436
v -0.507290 -0.251672 1.623734
v -0.507290 -0.124848 1.623734
v -0.126817 -0.251672 1.623734
v -0.126817 -0.124848 1.623734
v -0.507290 -0.251672 1.116436
v -0.507290 -0.251672 1.623734
v -0.126817 -0.251672 1.116436
v -0.126817 -0.251672 1.623734
v -0.380473 0.445856 0.482325
v -0.380473 0.445856 1.243271
v -0.380473 -0.315090 0.482325
v -0.380473 -0.315090 1.243271
v 0.380473 -0.315090 0.482325
v 0.380473 -0.315090 1.243271
v 0.380473 0.445856 0.482325
v 0.380473 0.445856 1.243271
v -0.380473 0.445856 0.482325
v -0.380473 -0.315090 0.482325
v 0.380473 0.445856 0.482325
v 0.380473 -0.315090 0.482325
v -0.380473 0.445856 1.243271
v -0.380473 0.445856 0.482325
v 0.380473 0.445856 1.243271
v 0.380473 0.445856 0.482325
v -0.380473 -0.315090 1.243271
v -0.380473 0.445856 1.243271
v 0.380473 -0.315090 1.243271
v 0.380473 0.445856 1.243271
v -0.380473 -0.315090 0.482325
v -0.380473 -0.315090 1.243271
v 0.380473 -0.315090 0.482325
v 0.380473 -0.315090 1.243271
v -0.380493 -0.315109 -1.039542
v -0.380493 0.445877 -1.039542
v -0.380493 -0.315110 0.482350
v -0.380493 0.445876 0.482350
v 0.380493 -0.315110 0.482350
v 0.380493 0.445876 0.482350
v 0.380493 -0.315109 -1.039542
v 0.380493 0.445877 -1.039542
v -0.380493 -0.315109 -1.039542
v -0.380493 -0.315110 0.482350
v 0.380493 -0.315109 -1.039542
v 0.380493 -0.315110 0.482350
v -0.380493 0.445877 -1.039542
v -0.380493 -0.315109 -1.039542
v 0.380493 0.445877 -1.039542
v 0.380493 -0.315109 -1.039542
v -0.380493 0.445876 0.482350
v -0.380493 0.445877 -1.039542
v 0.380493 0.445876 0.482350
v 0.380493 0.445877 -1.039542
v -0.253643 0.299538 -1.162727
v -0.507286 0.299538 -1.162727
v -0.253643 0.432176 0.353341
v -0.634108 0.454283 0.606019
v -1.268230 0.321645 -0.910049
v -1.141394 0.454283 0.606019
v -1.268230 0.443229 0.479680
v 0.253629 0.299538 -1.162727
v 0.253628 0.432176 0.353341
v 0.507286 0.299538 -1.162727
v 0.634108 0.454283 0.606019
v 1.268215 0.321645 -0.910049
v 1.141394 0.454283 0.606019
v 1.268215 0.443229 0.479680
v -1.268201 0.321645 -0.910049
v -2.029145 0.321645 -0.910049
v -1.268201 0.443231 0.479696
v -1.395037 0.443231 0.479696
v -2.029145 0.421123 0.227002
v -2.155969 0.332697 -0.783715
v -2.282803 0.354804 -0.531032
v -2.282803 0.399017 -0.025676
v 2.282803 0.354804 -0.531032
v 2.029152 0.421124 0.227010
v 2.282803 0.399017 -0.025676
v 2.155969 0.332697 -0.783715
v 2.029145 0.321645 -0.910049
v 1.395038 0.443231 0.479696
v 1.268201 0.443231 0.479696
v 1.268201 0.321645 -0.910049
vn -0.0000 -0.9962 0.0872
vn -0.0000 1.0000 -0.0000
vn -0.0000 -0.0000 -1.0000
vn -0.0000 -1.0000 -0.0000
vn 1.0000 -0.0000 -0.0000
vn -1.0000 -0.0000 -0.0000
vn -0.0000 -0.0000 1.0000
vt 0.093750 0.750000
vt 0.187500 0.750000
vt 0.187500 0.656250
vt 0.093750 0.656250
vt 0.046870 0.359370
vt 0.046870 0.453120
vt 0.140620 0.359370
vt 0.140620 0.453120
vt 0.437500 0.921870
vt 0.437500 0.984370
vt 0.453120 0.921870
vt 0.453120 0.984370
vt 0.375000 0.921870
vt 0.375000 0.984370
vt 0.390620 0.921870
vt 0.390620 0.984370
vt 0.484370 0.984370
vt 0.484370 1.000000
vt 0.437490 0.984370
vt 0.437490 1.000000
vt 0.453120 0.984370
vt 0.453120 0.921870
vt 0.500000 0.984370
vt 0.500000 0.921870
vt 0.437500 0.984370
vt 0.437500 1.000000
vt 0.390620 0.984370
vt 0.390620 1.000000
vt 0.437500 0.921870
vt 0.437500 0.984370
vt 0.390620 0.921870
vt 0.390620 0.984370
vt 0.375000 0.921870
vt 0.375000 0.984370
vt 0.390620 0.921870
vt 0.390620 0.984370
vt 0.437500 0.921870
vt 0.437500 0.984370
vt 0.453120 0.921870
vt 0.453120 0.984370
vt 0.437490 0.984370
vt 0.437490 1.000000
vt 0.484370 0.984370
vt 0.484370 1.000000
vt 0.500000 0.984370
vt 0.500000 0.921870
vt 0.453120 0.984370
vt 0.453120 0.921870
vt 0.390620 0.984370
vt 0.390620 1.000000
vt 0.437500 0.984370
vt 0.437500 1.000000
vt 0.390620 0.921870
vt 0.390620 0.984370
vt 0.437500 0.921870
vt 0.437500 0.984370
vt 0.000000 0.812500
vt 0.000000 0.906250
vt 0.093750 0.812500
vt 0.093750 0.906250
vt 0.187500 0.812500
vt 0.187500 0.906250
vt 0.281250 0.812500
vt 0.281250 0.906250
vt 0.187500 0.906250
vt 0.187500 1.000000
vt 0.281250 0.906250
vt 0.281250 1.000000
vt 0.375000 0.906250
vt 0.375000 0.812500
vt 0.281250 0.906250
vt 0.281250 0.812500
vt 0.093750 0.906250
vt 0.093750 1.000000
vt 0.187500 0.906250
vt 0.187500 1.000000
vt 0.093750 0.812500
vt 0.093750 0.906250
vt 0.187500 0.812500
vt 0.187500 0.906250
vt 0.000000 0.656250
vt 0.093750 0.656250
vt 0.000000 0.468750
vt 0.093750 0.468750
vt 0.187500 0.656250
vt 0.281250 0.656250
vt 0.187500 0.468750
vt 0.281250 0.468750
vt 0.093750 0.468750
vt 0.093750 0.656250
vt 0.187500 0.468750
vt 0.187500 0.656250
vt 0.187500 0.656250
vt 0.187500 0.750000
vt 0.281250 0.656250
vt 0.281250 0.750000
vt 0.375000 0.656250
vt 0.375000 0.468750
vt 0.281250 0.656250
vt 0.281250 0.468750
vt 0.796870 0.765620
vt 0.765620 0.765620
vt 0.796870 0.953120
vt 0.750000 0.984370
vt 0.671870 0.796870
vt 0.687500 0.984370
vt 0.671870 0.968740
vt 0.796870 0.765620
vt 0.796870 0.953120
vt 0.765620 0.765620
vt 0.749990 0.984370
vt 0.671870 0.796870
vt 0.687500 0.984370
vt 0.671870 0.968740
vt 0.515620 0.562500
vt 0.421880 0.562500
vt 0.515620 0.734370
vt 0.499990 0.734370
vt 0.421880 0.703120
vt 0.406250 0.578120
vt 0.390630 0.609370
vt 0.390630 0.671870
vt 0.390630 0.609370
vt 0.421870 0.703120
vt 0.390630 0.671870
vt 0.406250 0.578120
vt 0.421880 0.562500
vt 0.499990 0.734370
vt 0.515620 0.734370
vt 0.515620 0.562500
s 0
usemtl bat
f 127/127/1 129/129/1 130/130/1
f 127/127/1 128/128/1 129/129/1
f 127/127/1 124/124/1 128/128/1
f 126/126/1 124/124/1 127/127/1
f 123/123/1 124/124/1 126/126/1
f 125/125/1 124/124/1 123/123/1
f 122/122/1 121/121/1 119/119/1
f 119/119/1 121/121/1 120/120/1
f 119/119/1 120/120/1 116/116/1
f 119/119/1 116/116/1 118/118/1
f 118/118/1 116/116/1 117/117/1
f 117/117/1 116/116/1 115/115/1
f 113/113/1 112/112/1 114/114/1
f 113/113/1 111/111/1 112/112/1
f 112/112/1 111/111/1 110/110/1
f 110/110/1 111/111/1 109/109/1
f 110/110/1 109/109/1 108/108/1
f 105/105/1 106/106/1 107/107/1
f 106/106/1 105/105/1 104/104/1
f 104/104/1 105/105/1 102/102/1
f 104/104/1 102/102/1 103/103/1
f 103/103/1 102/102/1 101/101/1
f 99/99/2 100/100/2 98/98/2
f 99/99/2 98/98/2 97/97/2
f 95/95/3 96/96/3 94/94/3
f 95/95/3 94/94/3 93/93/3
f 91/91/4 92/92/4 90/90/4
f 91/91/4 90/90/4 89/89/4
f 87/87/5 88/88/5 86/86/5
f 87/87/5 86/86/5 85/85/5
f 83/83/6 84/84/6 82/82/6
f 83/83/6 82/82/6 81/81/6
f 79/79/4 80/80/4 78/78/4
f 79/79/4 78/78/4 77/77/4
f 75/75/7 76/76/7 74/74/7
f 75/75/7 74/74/7 73/73/7
f 71/71/2 72/72/2 70/70/2
f 71/71/2 70/70/2 69/69/2
f 67/67/3 68/68/3 66/66/3
f 67/67/3 66/66/3 65/65/3
f 63/63/5 64/64/5 62/62/5
f 63/63/5 62/62/5 61/61/5
f 59/59/6 60/60/6 58/58/6
f 59/59/6 58/58/6 57/57/6
f 55/55/4 56/56/4 54/54/4
f 55/55/4 54/54/4 53/53/4
f 51/51/7 52/52/7 50/50/7
f 51/51/7 50/50/7 49/49/7
f 47/47/2 48/48/2 46/46/2
f 47/47/2 46/46/2 45/45/2
f 43/43/3 44/44/3 42/42/3
f 43/43/3 42/42/3 41/41/3
f 39/39/5 40/40/5 38/38/5
f 39/39/5 38/38/5 37/37/5
f 35/35/6 36/36/6 34/34/6
f 35/35/6 34/34/6 33/33/6
f 31/31/4 32/32/4 30/30/4
f 31/31/4 30/30/4 29/29/4
f 27/27/7 28/28/7 26/26/7
f 27/27/7 26/26/7 25/25/7
f 23/23/2 24/24/2 22/22/2
f 23/23/2 22/22/2 21/21/2
f 19/19/3 20/20/3 18/18/3
f 19/19/3 18/18/3 17/17/3
f 15/15/5 16/16/5 14/14/5
f 15/15/5 14/14/5 13/13/5
f 11/11/6 12/12/6 10/10/6
f 11/11/6 10/10/6 9/9/6
f 7/7/4 8/8/4 6/6/4
f 7/7/4 6/6/4 5/5/4
f 3/3/7 1/1/7 4/4/7
f 3/3/7 2/2/7 1/1/7
